<svg xmlns="http://www.w3.org/2000/svg" fill="none" viewBox="0 0.62 55.94 47.21"><mask id="a"  maskUnits="userSpaceOnUse" style="mask-type: luminance;"><path fill="#fff" d="M55.943.621H27.94v47.213h28.003V.62Z"/></mask><g mask="url(#a)"><path fill="#1EBCA1" d="M27.94 11.464c20.79 0 17.082 8.649 17.082 8.649-.184 5.51-2.23 17.776-2.908 19.077-.679 1.302-4.281 5.033-7.1 6.464 0 0-1.018-1.087-1.641-2.045-.789.938-4.875 4.23-5.433 4.23V11.464Z"/><path fill="#1EBCA1" d="M45.277 18.616c0 .888-.255 1.492-.255 1.492-.184 5.51-2.23 17.775-2.908 19.077-.679 1.302-4.281 5.033-7.1 6.464 0 0-1.018-1.087-1.641-2.045-.789.938-4.875 4.23-5.433 4.23V18.616h17.337Z"/><path fill="url(#b)" d="m42.662 20.008-.998 8.115-5.548.498.489 6.858s-3.378 2.818-8.661 2.818v-17.79l14.723-.5h-.005Z"/><path fill="#4FF7D1" d="m53.945 16.618-27.004 9.245V16.99l24.357-6.184 2.647 5.812Z"/><path fill="#4FF7D1" d="m53.948 16.616-7.44 2.499V1.12s7.44 8.13 7.44 15.496ZM37.324 15.424l2.65-5.252 4.036 4.898M26.941 16.99h5.987l1.208 16.23a29.01 29.01 0 0 1-7.19.903V16.99h-.005Z"/></g><mask id="c" x="0" y="0" maskUnits="userSpaceOnUse" style="mask-type: luminance;"><path fill="#fff" d="M0 .621h28.004v47.213H0V.62Z"/></mask><g mask="url(#c)"><path fill="#1EBCA1" d="M28.004 11.464c-20.79 0-17.082 8.649-17.082 8.649.184 5.51 2.23 17.776 2.908 19.077.679 1.302 4.28 5.033 7.1 6.464 0 0 1.018-1.087 1.641-2.045.788.938 4.874 4.23 5.433 4.23V11.464Z"/><path fill="#1EBCA1" d="M10.667 18.616c0 .888.254 1.492.254 1.492.185 5.51 2.23 17.775 2.909 19.077.678 1.302 4.28 5.033 7.1 6.464 0 0 1.017-1.087 1.64-2.045.789.938 4.875 4.23 5.434 4.23V18.616H10.667Z"/><path fill="url(#d)" d="m13.282 20.008.998 8.115 5.547.498-.489 6.858s3.378 2.818 8.662 2.818v-17.79l-14.723-.5h.005Z"/><path fill="#4FF7D1" d="m1.999 16.618 27.003 9.245V16.99L4.646 10.806l-2.647 5.812Z"/><path fill="#4FF7D1" d="m1.996 16.616 7.439 2.499V1.12s-7.44 8.13-7.44 15.496ZM18.62 15.424l-2.65-5.252-4.035 4.898M29.002 16.99h-5.987l-1.207 16.23c2.36.603 4.774.903 7.189.903V16.99h.005Z"/></g>
<defs><linearGradient id="b" x1="42.662" x2="27.939" y1="-45.879" y2="-45.879" gradientUnits="userSpaceOnUse"><stop stop-color="#1D2B33"/><stop offset="1" stop-color="#121B24"/></linearGradient><linearGradient id="d" x1="13.282" x2="28.005" y1="-45.879" y2="-45.879" gradientUnits="userSpaceOnUse"><stop stop-color="#1D2B33"/><stop offset="1" stop-color="#121B24"/></linearGradient></defs></svg>